<svg width="1391" height="146" viewBox="0 0 1391 146" fill="none" xmlns="http://www.w3.org/2000/svg">
<rect width="1391" height="146" rx="73" fill="#8FC9AF" style="fill:#8FC9AF;fill:color(display-p3 0.5608 0.7882 0.6863);fill-opacity:1;"/>
<path d="M434.707 103.384C428.627 103.384 423.283 102.232 418.675 99.928C414.067 97.56 410.451 94.04 407.827 89.368C405.267 84.696 403.987 78.904 403.987 71.992C403.987 62.648 406.483 55.256 411.475 49.816C416.467 44.312 423.891 41.56 433.747 41.56C437.203 41.56 440.627 41.944 444.019 42.712C447.475 43.48 450.675 44.728 453.619 46.456L449.299 58.552C447.763 57.592 445.843 56.856 443.539 56.344C441.235 55.768 439.027 55.48 436.915 55.48C431.923 55.48 428.051 57.016 425.299 60.088C422.611 63.096 421.267 67.16 421.267 72.28C421.267 77.912 422.803 82.2 425.875 85.144C429.011 88.024 433.043 89.464 437.971 89.464C440.723 89.464 443.315 89.048 445.747 88.216C448.179 87.384 450.291 86.36 452.083 85.144L457.075 95.896C454.707 97.688 451.763 99.384 448.243 100.984C444.723 102.584 440.211 103.384 434.707 103.384ZM500.353 107.704L475.297 82.744V103H458.977V47.704C460.513 46.68 462.561 45.72 465.121 44.824C467.745 43.864 470.657 43.096 473.857 42.52C477.057 41.88 480.321 41.56 483.649 41.56C491.777 41.56 498.113 43.448 502.657 47.224C507.265 51 509.569 56.216 509.569 62.872C509.569 67.928 508.289 72.152 505.729 75.544C503.233 78.936 499.841 81.432 495.553 83.032L511.393 95.8L500.353 107.704ZM484.417 73.048C487.233 73.048 489.409 72.152 490.945 70.36C492.481 68.568 493.249 66.296 493.249 63.544C493.249 60.728 492.417 58.488 490.753 56.824C489.153 55.096 486.657 54.232 483.265 54.232C480.065 54.232 477.409 54.872 475.297 56.152V63.64C475.297 66.648 476.161 68.984 477.889 70.648C479.681 72.248 481.857 73.048 484.417 73.048ZM512.351 103V41.944H556.319V54.424H528.671V65.752H552.575V78.232H528.671V90.52H556.895V103H512.351ZM557.827 103L578.947 41.848H598.435L617.923 103H600.355L596.707 90.904H579.427L575.779 103H557.827ZM583.075 77.464H594.019L588.931 59.896H588.547L583.075 77.464ZM626.081 103V54.712H610.241V41.944H658.241V54.712H642.401V103H626.081ZM659.16 103V41.944H703.128V54.424H675.48V65.752H699.384V78.232H675.48V90.52H703.704V103H659.16ZM746.492 103.864C741.628 103.864 736.956 103.16 732.476 101.752C728.06 100.28 724.54 98.424 721.916 96.184L727.196 84.376C728.54 85.4 730.204 86.328 732.188 87.16C734.172 87.992 736.316 88.664 738.62 89.176C740.924 89.688 743.132 89.944 745.244 89.944C748.316 89.944 750.428 89.464 751.58 88.504C752.732 87.544 753.308 86.424 753.308 85.144C753.308 83.864 752.828 82.84 751.868 82.072C750.972 81.304 749.5 80.536 747.452 79.768L739.388 76.792C734.396 74.936 730.364 72.696 727.292 70.072C724.284 67.384 722.78 63.704 722.78 59.032C722.78 53.592 724.892 49.336 729.116 46.264C733.404 43.128 739.484 41.56 747.356 41.56C752.476 41.56 756.892 42.2 760.604 43.48C764.38 44.696 767.452 46.328 769.82 48.376L764.924 59.608C763.58 58.84 761.916 58.136 759.932 57.496C757.948 56.856 755.868 56.376 753.692 56.056C751.58 55.672 749.564 55.48 747.644 55.48C745.02 55.48 743.1 55.832 741.884 56.536C740.732 57.24 740.156 58.168 740.156 59.32C740.156 60.28 740.604 61.176 741.5 62.008C742.396 62.776 743.9 63.544 746.012 64.312L753.02 66.904C759.484 69.272 764.028 71.8 766.652 74.488C769.34 77.112 770.684 80.504 770.684 84.664C770.684 90.232 768.604 94.84 764.444 98.488C760.348 102.072 754.364 103.864 746.492 103.864ZM786.514 103V54.712H770.674V41.944H818.674V54.712H802.834V103H786.514ZM848.703 103.384C842.303 103.384 836.767 102.168 832.095 99.736C827.487 97.24 823.935 93.688 821.439 89.08C818.943 84.472 817.695 78.968 817.695 72.568C817.695 66.168 818.943 60.664 821.439 56.056C823.935 51.384 827.487 47.8 832.095 45.304C836.767 42.808 842.303 41.56 848.703 41.56C855.103 41.56 860.543 42.808 865.023 45.304C869.567 47.8 873.023 51.384 875.391 56.056C877.759 60.664 878.943 66.168 878.943 72.568C878.943 82.168 876.287 89.72 870.975 95.224C865.727 100.664 858.303 103.384 848.703 103.384ZM848.703 89.56C853.055 89.56 856.351 88.152 858.591 85.336C860.895 82.456 862.047 78.232 862.047 72.664C862.047 67.096 860.895 62.84 858.591 59.896C856.351 56.888 853.055 55.384 848.703 55.384C844.351 55.384 840.895 56.888 838.335 59.896C835.839 62.84 834.591 67.096 834.591 72.664C834.591 78.232 835.839 82.456 838.335 85.336C840.895 88.152 844.351 89.56 848.703 89.56ZM922.217 107.704L897.161 82.744V103H880.841V47.704C882.377 46.68 884.425 45.72 886.985 44.824C889.609 43.864 892.521 43.096 895.721 42.52C898.921 41.88 902.185 41.56 905.513 41.56C913.641 41.56 919.977 43.448 924.521 47.224C929.129 51 931.433 56.216 931.433 62.872C931.433 67.928 930.153 72.152 927.593 75.544C925.097 78.936 921.705 81.432 917.417 83.032L933.257 95.8L922.217 107.704ZM906.281 73.048C909.097 73.048 911.273 72.152 912.809 70.36C914.345 68.568 915.113 66.296 915.113 63.544C915.113 60.728 914.281 58.488 912.617 56.824C911.017 55.096 908.521 54.232 905.129 54.232C901.929 54.232 899.273 54.872 897.161 56.152V63.64C897.161 66.648 898.025 68.984 899.753 70.648C901.545 72.248 903.721 73.048 906.281 73.048ZM949.449 103V80.056L925.545 41.944H944.649L957.513 64.6H958.089L970.089 41.944H989.001L967.785 79.48V103H949.449Z" fill="black" style="fill:black;fill-opacity:1;"/>
</svg>
