<svg width="710" height="565" viewBox="0 0 710 565" fill="none" xmlns="http://www.w3.org/2000/svg">
<path d="M117.736 504.881L578.192 435.306" stroke="#021128" style="stroke:#021128;stroke:color(display-p3 0.0078 0.0667 0.1569);stroke-opacity:1;" stroke-width="32" stroke-linecap="round"/>
<path d="M416.988 531.633L569.888 491.704" stroke="#021128" style="stroke:#021128;stroke:color(display-p3 0.0078 0.0667 0.1569);stroke-opacity:1;" stroke-width="32" stroke-linecap="round"/>
<path d="M529.34 345.827C523.524 353.444 516.951 362.584 510.631 371.216C503.552 380.864 495.966 390.513 489.389 397.371C486.606 400.166 484.327 401.438 481.031 401.445C478.75 401.449 476.214 400.947 474.437 400.19C471.393 399.183 466.825 396.657 463.015 393.369C459.459 389.827 455.899 384.764 455.887 378.679C455.88 375.13 457.649 372.338 458.659 370.561C463.97 363.959 469.535 358.117 474.845 351.261C484.706 338.565 494.312 324.856 504.426 311.906C494.765 298.236 485.356 284.312 475.443 271.149C470.105 264.315 464.769 258.242 459.178 251.662C458.669 250.902 457.907 250.143 457.651 248.876C456.888 247.61 456.377 245.837 456.373 243.808C456.346 230.372 474.579 220.702 480.917 220.689C482.945 220.685 485.481 220.933 487.766 222.703C493.098 226.495 501.995 238.138 510.638 250.036C518.012 260.922 525.64 272.061 530.471 278.896C546.91 259.342 563.857 240.294 581.822 223.526C583.593 221.747 584.605 220.985 587.141 220.98C594.239 220.965 612.262 232.59 612.29 246.027C612.297 249.576 611.033 251.606 609.515 252.877C603.191 259.735 596.865 265.579 590.54 272.183C578.399 285.39 566.257 298.851 554.878 313.071C569.367 332.309 584.362 350.531 601.377 364.947C601.885 365.453 602.392 365.706 602.646 365.959C602.9 366.212 603.408 366.718 603.662 366.971C604.425 367.73 604.934 368.996 605.697 370.262C606.207 371.782 606.718 373.556 606.722 375.584C606.748 388.513 590.801 400.461 583.449 400.476C581.675 400.479 580.153 399.975 578.375 398.711C576.091 397.195 573.042 394.159 569.995 391.63C566.947 388.594 564.152 385.558 562.12 383.787C550.435 372.403 539.507 359.242 529.34 345.827Z" fill="#021128" style="fill:#021128;fill:color(display-p3 0.0078 0.0667 0.1569);fill-opacity:1;"/>
<path d="M339.266 262.302C339.345 263.194 339.423 264.085 339.501 264.976C338.042 281.271 337.907 297.449 339.334 313.714C341.427 337.556 346.613 376.393 374.621 373.935C407.702 371.032 411.439 330.063 408.877 300.874C407.684 287.283 404.565 274.534 401.628 261.32C401.569 260.651 401.309 260.225 401.251 259.556C400.429 250.198 415.339 242.827 424.381 242.034C428.571 241.666 432.677 242.877 435.597 245.764C442.359 251.907 445.323 280.611 446.144 289.969C447.631 306.903 448.832 325.659 445.648 342.553C439.158 377.477 417.304 407.012 379.813 410.303C328.208 414.832 304.831 371.304 300.9 326.518C300.079 317.16 298.85 265.176 302.13 259.5C304.625 255.015 311.707 252.148 318.985 251.509C328.468 250.676 338.523 253.835 339.266 262.302Z" fill="#021128" style="fill:#021128;fill:color(display-p3 0.0078 0.0667 0.1569);fill-opacity:1;"/>
<path d="M235.444 389.34C239.091 390.292 243.153 390.19 247.194 389.835C261.589 388.572 275.31 382.532 289.781 379.226L291.548 379.071C301.398 378.206 307.92 391.631 308.807 401.733C309.161 405.773 308.891 411.396 305.897 414.967C302.716 419.318 290.08 423.226 278.321 425.531C266.124 428.637 253.585 430.756 248.787 431.177C236.16 432.285 220.094 431.914 207.024 427.971C193.382 423.316 190.491 393.285 189.405 380.91C186.59 348.837 185.391 291.683 189.319 261.054C189.833 258.209 191.193 256.308 192.62 255.165C194.024 253.77 195.956 252.582 197.932 251.9C201.609 250.304 205.628 249.697 207.648 249.52C212.952 249.054 223.669 249.386 228.065 253.072C230.196 254.158 232.46 256.758 232.815 260.799L232.903 261.809C232.13 296.487 229.615 337.426 232.608 371.52C233.14 377.581 234.199 383.85 235.444 389.34Z" fill="#021128" style="fill:#021128;fill:color(display-p3 0.0078 0.0667 0.1569);fill-opacity:1;"/>
<path d="M131.24 420.26C131.595 420.701 131.703 421.197 131.757 421.444C134.071 432.097 119.647 440.938 111.224 442.768C109.243 443.198 106.464 443.543 103.276 443.197C100.831 442.691 97.1796 441.409 94.9721 437.219C86.2072 418.369 77.9933 387.725 73.5262 367.162C70.0816 351.307 67.3265 335.043 64.3236 318.833C63.495 313.824 62.6125 308.568 61.6761 303.064C60.7398 297.56 60.0513 292.002 59.6642 286.638C59.3207 277.892 64.4915 271.84 68.8218 269.083C71.3316 267.5 79.8947 265.121 87.7684 263.151C96.1376 261.073 104.313 259.297 107.781 258.544C116.947 256.552 146.783 250.589 153.988 256.288C156.81 258.529 158.963 262.471 159.825 266.435C161.762 275.353 160.661 292.974 150.999 295.073L150.008 295.289C134.714 296.536 119.828 298.473 104.716 301.756L101.991 302.348C103.756 312.86 105.521 323.373 107.588 334.079C121.493 330.02 135.614 326.953 149.735 323.885C153.451 323.078 156.434 326.062 158.427 329.261C160.171 332.514 161.226 336.176 161.818 338.901C163.325 345.838 164.648 362.673 155.234 364.718C142.104 367.57 129.275 370.617 116.307 374.212C120.441 389.658 124.768 404.803 130.971 419.021L131.24 420.26Z" fill="#021128" style="fill:#021128;fill:color(display-p3 0.0078 0.0667 0.1569);fill-opacity:1;"/>
<path d="M579.149 97.7584L614.633 87.2289C622.653 84.849 629.427 93.4166 631.951 101.923C634.259 109.7 634.895 124.32 626.146 126.916L589.447 137.807C592.313 145.683 595.908 153.342 600.088 160.3C604.094 160.433 607.812 159.594 611.7 158.44C625.554 154.33 637.965 145.358 651.313 139.546L653.257 138.969C662.736 136.156 671.78 148.81 674.664 158.532C675.818 162.42 676.045 167.642 674.237 171.351C669.938 180.032 633.105 194.928 622.898 197.957C610.746 201.563 595.298 202.974 581.738 198.271C566.918 192.884 552.029 153.405 547.702 138.823C539.841 112.332 535.083 79.3662 532.444 52.6477C531.955 45.6529 534.815 39.2509 538.054 35.9097C541.564 31.695 556.271 26.0084 570.394 21.0242C585.076 16.1388 600.387 11.5953 606.463 9.79226C608.894 9.07106 611.081 8.42199 613.34 8.01595C615.6 7.60991 617.688 7.51903 619.921 7.91423C624.774 9.11858 628.962 13.4291 631.486 21.9355C633.433 28.4975 634.924 41.5417 628.669 46.3066C627.184 47.5405 619.407 49.8484 612.116 52.0119C604.753 53.9325 596.903 55.9973 594.23 56.7906C587.668 58.7379 580.692 61.0724 574.274 63.5057C575.818 74.9473 577.119 86.461 579.149 97.7584Z" fill="#021128" style="fill:#021128;fill:color(display-p3 0.0078 0.0667 0.1569);fill-opacity:1;"/>
<path d="M470.014 169.931C473.661 170.884 477.724 170.782 481.764 170.427C496.159 169.163 509.881 163.124 524.351 159.818L526.119 159.663C535.968 158.798 542.49 172.223 543.377 182.324C543.732 186.365 543.462 191.988 540.467 195.559C537.286 199.91 524.65 203.818 512.891 206.123C500.694 209.229 488.155 211.348 483.357 211.769C470.73 212.877 454.665 212.506 441.594 208.563C427.952 203.907 425.062 173.877 423.976 161.502C421.16 129.429 419.961 72.2744 423.89 41.6455C424.403 38.801 425.764 36.9002 427.19 35.757C428.595 34.3613 430.526 33.1738 432.502 32.4914C436.18 30.8962 440.198 30.289 442.218 30.1117C447.522 29.6462 458.24 29.9779 462.635 33.6639C464.766 34.7493 467.03 37.35 467.385 41.3907L467.474 42.4009C466.7 77.0792 464.185 118.018 467.178 152.112C467.71 158.173 468.769 164.442 470.014 169.931Z" fill="#021128" style="fill:#021128;fill:color(display-p3 0.0078 0.0667 0.1569);fill-opacity:1;"/>
<path d="M380.434 126.133C392.879 131.657 408.011 144.581 409.695 163.774C411.978 189.786 392.192 205.01 378.537 211.808C363.456 219.748 346.668 222.748 330.506 224.167C320.151 225.076 293.612 227.151 283.567 217.089C279.633 212.854 278.268 208.902 277.001 203.16C272.835 184.693 270.184 166.094 268.544 147.406C266.505 124.172 266.003 101.057 264.974 77.7345L264.841 76.2193C264.575 73.1887 264.056 70.1804 263.813 67.4024C262.372 50.9871 272.38 43.2374 281.977 42.3951L283.997 42.2178C284.777 42.4038 285.304 42.6121 285.809 42.5677C286.336 42.7759 286.842 42.7316 287.369 42.9398L288.632 42.829C291.662 42.563 295.339 40.9678 298.6 40.4271C305.33 38.8184 311.874 37.9896 318.693 37.3911C339.907 35.5291 369.92 38.2391 387.475 61.3837C392.367 67.8256 395.646 76.1904 396.444 85.2819C397.884 101.697 389.024 116.726 380.434 126.133ZM313.716 183.65C318.054 183.778 321.864 183.698 326.157 183.322C335.501 182.501 351.278 179.59 358.62 173.347C361.198 170.83 362.031 168.721 361.831 166.448C361.676 164.68 360.764 162.979 359.137 161.849C357.214 160.237 354.348 159.47 351.503 158.956C346.869 158.345 342.071 158.766 338.535 159.077C329.191 159.897 319.891 161.222 310.591 162.547C311.487 169.849 312.36 176.898 313.716 183.65ZM307.546 130.749C323.234 126.827 348.865 114.398 350.991 95.1246C351.221 94.8499 351.154 94.0923 351.088 93.3347C349.935 80.2024 329.355 77.6825 319.001 78.5913C314.202 79.0124 309.701 79.9165 305.222 81.0731C305.905 97.5549 306.61 114.289 307.546 130.749Z" fill="#021128" style="fill:#021128;fill:color(display-p3 0.0078 0.0667 0.1569);fill-opacity:1;"/>
<path d="M211.1 199.019L154.025 204.028C153.556 207.378 153.241 212.495 152.927 217.613C152.458 220.962 152.263 224.542 152.002 227.364C151.607 228.671 151.443 229.704 151.28 230.736C151.071 231.263 151.116 231.768 150.907 232.296C150.699 232.823 150.491 233.35 150.283 233.878C148.484 236.58 145.037 237.901 142.051 238.672C139.043 239.19 135.76 239.479 133.992 239.634C125.91 240.343 105.596 240.854 104.621 229.742C104.599 229.489 104.532 228.731 104.674 227.447C104.86 226.667 105.024 225.634 105.188 224.602C105.307 223.065 105.635 221 105.613 220.747C112.083 169.791 128.558 119.737 149.659 73.0953C150.261 71.261 151.116 69.4045 151.971 67.548C155.741 58.31 162.865 55.3943 172.462 54.552C177.765 54.0865 185.683 54.4095 190.761 60.0716C203.203 74.2489 215.158 97.3761 223.617 115.466C237.433 145.301 248.812 176.368 263.661 206.366C264.254 207.332 264.618 208.573 264.751 210.088C265.15 214.634 262.912 218.139 260.542 220.128C258.216 222.623 254.836 224.701 251.938 226.482C245.341 229.606 237.876 231.534 234.845 231.8C233.077 231.955 230.277 231.946 227.894 230.883C223.653 228.965 219.936 221.402 217.064 214.783C215.039 209.107 212.739 203.201 211.1 199.019ZM164.049 161.667L195.365 158.918C189.161 146.229 182.75 134.068 176.316 121.653C171.868 134.768 167.948 148.091 164.049 161.667Z" fill="#021128" style="fill:#021128;fill:color(display-p3 0.0078 0.0667 0.1569);fill-opacity:1;"/>
<path d="M60.1225 227.285C60.4193 227.768 60.4637 228.273 60.4858 228.526C61.439 239.385 46.0164 246.337 37.4299 247.091C35.4096 247.268 32.6094 247.26 29.4902 246.515C27.1287 245.705 23.6683 243.973 22.0066 239.538C15.6875 219.733 11.4015 188.298 9.56174 167.337C8.14311 151.174 7.45995 134.693 6.52425 118.233C6.33347 113.16 6.12053 107.834 5.88542 102.256C5.65031 96.678 5.66774 91.0777 5.95989 85.7078C6.7215 76.9884 12.6139 71.6359 17.2571 69.4469C19.9464 68.1929 28.7411 66.912 36.8003 65.9502C45.3646 64.944 53.6986 64.2125 57.2342 63.9022C66.5783 63.0821 96.9278 60.9272 103.357 67.4886C105.874 70.0671 107.513 74.2495 107.868 78.2902C108.666 87.3817 105.353 104.723 95.5035 105.588L94.4933 105.676C79.1634 104.986 64.1525 105.031 48.7473 106.383L45.9693 106.627C46.3952 117.278 46.8211 127.929 47.5217 138.811C61.828 136.537 76.223 135.274 90.618 134.01C94.4061 133.678 96.9893 137.014 98.5624 140.439C99.8829 143.886 100.468 147.652 100.712 150.43C101.332 157.501 100.522 174.368 90.9258 175.211C77.541 176.385 64.4309 177.791 51.1126 179.723C53.2667 195.567 55.6512 211.136 60.0116 226.022L60.1225 227.285Z" fill="#021128" style="fill:#021128;fill:color(display-p3 0.0078 0.0667 0.1569);fill-opacity:1;"/>
</svg>
