<svg width="976" height="163" viewBox="0 0 976 163" fill="none" xmlns="http://www.w3.org/2000/svg">
<path d="M0.954358 69V14.76C2.49036 13.544 4.53836 12.392 7.09836 11.304C9.65836 10.216 12.5384 9.32 15.7384 8.616C19.0024 7.912 22.3624 7.56 25.8184 7.56C33.7544 7.56 40.0264 9.544 44.6344 13.512C49.2424 17.416 51.5464 23.048 51.5464 30.408C51.5464 35.528 50.4584 39.816 48.2824 43.272C46.1704 46.664 43.2904 49.192 39.6424 50.856C36.0584 52.52 32.0904 53.352 27.7384 53.352C25.4344 53.352 23.4184 53.128 21.6904 52.68C20.0264 52.232 18.5544 51.656 17.2744 50.952V69H0.954358ZM26.3944 40.2C29.0184 40.2 31.1304 39.368 32.7304 37.704C34.3944 36.04 35.2264 33.544 35.2264 30.216C35.2264 27.08 34.3944 24.648 32.7304 22.92C31.0664 21.128 28.4424 20.232 24.8584 20.232C21.9144 20.232 19.3864 20.808 17.2744 21.96V31.56C17.2744 34.568 18.2024 36.776 20.0584 38.184C21.9144 39.528 24.0264 40.2 26.3944 40.2ZM76.8574 69.576C71.7374 69.576 67.1934 68.552 63.2254 66.504C59.3214 64.456 56.2494 61.48 54.0094 57.576C51.7694 53.672 50.6494 48.968 50.6494 43.464C50.6494 35.72 52.7934 29.768 57.0814 25.608C61.4334 21.384 67.2574 19.272 74.5534 19.272C79.6734 19.272 83.8334 20.264 87.0334 22.248C90.2974 24.168 92.6974 26.76 94.2334 30.024C95.7694 33.288 96.5374 36.904 96.5374 40.872C96.5374 42.28 96.4414 43.752 96.2494 45.288C96.1214 46.76 95.8974 48.232 95.5774 49.704H65.7214C66.0414 52.968 67.3854 55.176 69.7534 56.328C72.1854 57.48 74.9694 58.056 78.1054 58.056C80.7294 58.056 83.1294 57.768 85.3054 57.192C87.4814 56.552 89.2414 55.72 90.5854 54.696L94.7134 64.296C93.1134 65.64 90.7134 66.856 87.5134 67.944C84.3774 69.032 80.8254 69.576 76.8574 69.576ZM65.7214 40.008H83.0974C83.0974 37.448 82.3614 35.304 80.8894 33.576C79.4814 31.784 77.3374 30.888 74.4574 30.888C71.7054 30.888 69.5614 31.72 68.0254 33.384C66.4894 35.048 65.7214 37.256 65.7214 40.008ZM98.4206 69V28.296C100.661 25.736 103.413 23.592 106.677 21.864C110.005 20.136 113.813 19.272 118.101 19.272C123.349 19.272 127.957 20.616 131.925 23.304L127.893 34.344C126.933 33.704 125.781 33.224 124.437 32.904C123.157 32.584 121.973 32.424 120.885 32.424C119.541 32.424 118.293 32.616 117.141 33C116.053 33.32 115.253 33.704 114.741 34.152V69H98.4206ZM150.78 70.92C145.916 70.92 141.436 70.152 137.34 68.616C133.308 67.08 130.236 65.416 128.124 63.624L133.02 53.352C134.62 54.568 136.892 55.72 139.836 56.808C142.78 57.896 145.788 58.44 148.86 58.44C151.164 58.44 152.86 58.088 153.948 57.384C155.036 56.68 155.58 55.72 155.58 54.504C155.58 53.416 155.164 52.616 154.332 52.104C153.5 51.592 152.252 51.208 150.588 50.952L145.98 50.184C140.54 49.288 136.348 47.592 133.404 45.096C130.46 42.536 128.988 39.112 128.988 34.824C128.988 32.072 129.66 29.544 131.004 27.24C132.412 24.936 134.556 23.08 137.436 21.672C140.38 20.264 144.188 19.56 148.86 19.56C153.468 19.56 157.564 20.168 161.148 21.384C164.796 22.536 167.516 23.752 169.308 25.032L165.372 35.304C164.348 34.6 162.972 33.992 161.244 33.48C159.58 32.904 157.788 32.456 155.868 32.136C153.948 31.816 152.124 31.656 150.396 31.656C146.364 31.656 144.348 32.648 144.348 34.632C144.348 35.592 144.732 36.392 145.5 37.032C146.268 37.608 147.132 37.96 148.092 38.088L153.948 39.048C160.412 40.072 164.86 41.832 167.292 44.328C169.724 46.824 170.94 49.992 170.94 53.832C170.94 56.84 170.268 59.656 168.924 62.28C167.58 64.84 165.436 66.92 162.492 68.52C159.548 70.12 155.644 70.92 150.78 70.92ZM196.847 69.864C191.535 69.864 186.927 68.808 183.023 66.696C179.183 64.584 176.207 61.576 174.095 57.672C171.983 53.768 170.927 49.16 170.927 43.848C170.927 35.848 173.231 29.704 177.839 25.416C182.511 21.064 188.783 18.888 196.655 18.888C204.527 18.888 210.799 21.064 215.471 25.416C220.143 29.768 222.479 35.976 222.479 44.04C222.479 49.288 221.455 53.864 219.407 57.768C217.359 61.608 214.415 64.584 210.575 66.696C206.735 68.808 202.159 69.864 196.847 69.864ZM196.847 57C200.047 57 202.479 55.816 204.143 53.448C205.871 51.08 206.735 47.944 206.735 44.04C206.735 39.88 205.807 36.776 203.951 34.728C202.159 32.616 199.727 31.56 196.655 31.56C193.583 31.56 191.119 32.616 189.263 34.728C187.471 36.776 186.575 39.848 186.575 43.944C186.575 47.912 187.503 51.08 189.359 53.448C191.215 55.816 193.711 57 196.847 57ZM261.761 75.624L253.985 67.848V41.736C253.985 39.112 253.281 37.096 251.873 35.688C250.465 34.28 248.417 33.576 245.729 33.576C244.577 33.576 243.489 33.704 242.465 33.96C241.441 34.216 240.545 34.568 239.777 35.016V69H224.417V27.624C226.849 25.192 230.145 23.24 234.305 21.768C238.529 20.232 243.105 19.464 248.033 19.464C255.137 19.464 260.449 21.096 263.969 24.36C267.553 27.56 269.345 31.912 269.345 37.416V60.648L273.665 65.544L261.761 75.624ZM308.898 73.992L302.85 66.696C299.842 68.552 296.098 69.48 291.618 69.48C285.666 69.48 281.026 67.944 277.698 64.872C274.37 61.736 272.706 57.64 272.706 52.584C272.706 47.976 274.114 44.424 276.93 41.928C279.746 39.368 283.842 38.088 289.218 38.088H301.026V36.552C301.026 34.696 300.194 33.32 298.53 32.424C296.866 31.464 294.498 30.984 291.426 30.984C289.058 30.984 286.85 31.272 284.802 31.848C282.818 32.36 280.898 33.16 279.042 34.248L275.298 23.112C277.73 21.768 280.45 20.808 283.458 20.232C286.466 19.592 289.474 19.272 292.482 19.272C299.906 19.272 305.73 20.872 309.954 24.072C314.178 27.208 316.29 31.432 316.29 36.744V58.632L320.802 64.104L308.898 73.992ZM294.018 57.576C296.45 57.576 298.242 56.808 299.394 55.272C300.546 53.672 301.122 52.072 301.122 50.472V47.784H294.018C292.034 47.784 290.53 48.2 289.506 49.032C288.546 49.864 288.066 51.016 288.066 52.488C288.066 54.088 288.61 55.336 289.698 56.232C290.85 57.128 292.29 57.576 294.018 57.576ZM320.758 69V6.6H336.118V69H320.758ZM338.976 69V22.728H354.336V69H338.976ZM346.656 16.776C344.096 16.776 342.016 15.976 340.416 14.376C338.816 12.776 338.016 10.792 338.016 8.424C338.016 6.056 338.816 4.072 340.416 2.472C342.016 0.871996 344.096 0.0719948 346.656 0.0719948C349.28 0.0719948 351.36 0.871996 352.896 2.472C354.496 4.072 355.296 6.056 355.296 8.424C355.296 10.792 354.496 12.776 352.896 14.376C351.36 15.976 349.28 16.776 346.656 16.776ZM356.233 69V58.728L379.561 31.848H356.617V19.848H397.801V30.12L374.953 57H398.857V69H356.233ZM426.065 69.576C420.945 69.576 416.401 68.552 412.433 66.504C408.529 64.456 405.457 61.48 403.217 57.576C400.977 53.672 399.857 48.968 399.857 43.464C399.857 35.72 402.001 29.768 406.289 25.608C410.641 21.384 416.465 19.272 423.761 19.272C428.881 19.272 433.041 20.264 436.241 22.248C439.505 24.168 441.905 26.76 443.441 30.024C444.977 33.288 445.745 36.904 445.745 40.872C445.745 42.28 445.649 43.752 445.457 45.288C445.329 46.76 445.105 48.232 444.785 49.704H414.929C415.249 52.968 416.593 55.176 418.961 56.328C421.393 57.48 424.177 58.056 427.313 58.056C429.937 58.056 432.337 57.768 434.513 57.192C436.689 56.552 438.449 55.72 439.793 54.696L443.921 64.296C442.321 65.64 439.921 66.856 436.721 67.944C433.585 69.032 430.033 69.576 426.065 69.576ZM414.929 40.008H432.305C432.305 37.448 431.569 35.304 430.097 33.576C428.689 31.784 426.545 30.888 423.665 30.888C420.913 30.888 418.769 31.72 417.233 33.384C415.697 35.048 414.929 37.256 414.929 40.008ZM488.428 73.896L482.572 66.408C479.372 68.456 475.372 69.48 470.572 69.48C465.9 69.48 461.772 68.552 458.188 66.696C454.604 64.776 451.788 62.024 449.74 58.44C447.692 54.792 446.668 50.408 446.668 45.288C446.668 40.296 447.628 36.04 449.548 32.52C451.468 28.936 454.124 26.216 457.516 24.36C460.908 22.44 464.812 21.48 469.228 21.48C471.276 21.48 473.452 21.672 475.756 22.056C478.06 22.376 479.756 22.76 480.844 23.208V6.6H496.108V57.48L501.1 64.68L488.428 73.896ZM472.78 56.616C474.892 56.616 476.748 55.976 478.348 54.696C479.948 53.352 480.748 51.144 480.748 48.072V35.688C479.724 35.176 478.444 34.792 476.908 34.536C475.436 34.28 474.06 34.152 472.78 34.152C469.836 34.152 467.404 35.048 465.484 36.84C463.564 38.568 462.604 41.32 462.604 45.096C462.604 47.848 463.084 50.088 464.044 51.816C465.068 53.48 466.348 54.696 467.884 55.464C469.484 56.232 471.116 56.616 472.78 56.616ZM515.541 69L536.661 7.848H556.149L575.637 69H558.069L554.421 56.904H537.141L533.493 69H515.541ZM540.789 43.464H551.733L546.645 25.896H546.261L540.789 43.464ZM618.362 73.896L612.506 66.408C609.306 68.456 605.306 69.48 600.506 69.48C595.834 69.48 591.706 68.552 588.122 66.696C584.538 64.776 581.722 62.024 579.674 58.44C577.626 54.792 576.602 50.408 576.602 45.288C576.602 40.296 577.562 36.04 579.482 32.52C581.402 28.936 584.058 26.216 587.45 24.36C590.842 22.44 594.746 21.48 599.162 21.48C601.21 21.48 603.386 21.672 605.69 22.056C607.994 22.376 609.69 22.76 610.778 23.208V6.6H626.042V57.48L631.034 64.68L618.362 73.896ZM602.714 56.616C604.826 56.616 606.682 55.976 608.282 54.696C609.882 53.352 610.682 51.144 610.682 48.072V35.688C609.658 35.176 608.378 34.792 606.842 34.536C605.37 34.28 603.994 34.152 602.714 34.152C599.77 34.152 597.338 35.048 595.418 36.84C593.498 38.568 592.538 41.32 592.538 45.096C592.538 47.848 593.018 50.088 593.978 51.816C595.002 53.48 596.282 54.696 597.818 55.464C599.418 56.232 601.05 56.616 602.714 56.616ZM643.797 69L627.189 19.944H643.029L653.109 55.08L662.229 19.944H677.685L662.325 69H643.797ZM699.057 69.576C693.937 69.576 689.393 68.552 685.425 66.504C681.521 64.456 678.449 61.48 676.209 57.576C673.969 53.672 672.849 48.968 672.849 43.464C672.849 35.72 674.993 29.768 679.281 25.608C683.633 21.384 689.457 19.272 696.753 19.272C701.873 19.272 706.033 20.264 709.233 22.248C712.497 24.168 714.897 26.76 716.433 30.024C717.969 33.288 718.737 36.904 718.737 40.872C718.737 42.28 718.641 43.752 718.449 45.288C718.321 46.76 718.097 48.232 717.777 49.704H687.921C688.241 52.968 689.585 55.176 691.953 56.328C694.385 57.48 697.169 58.056 700.305 58.056C702.929 58.056 705.329 57.768 707.505 57.192C709.681 56.552 711.441 55.72 712.785 54.696L716.913 64.296C715.313 65.64 712.913 66.856 709.713 67.944C706.577 69.032 703.025 69.576 699.057 69.576ZM687.921 40.008H705.297C705.297 37.448 704.561 35.304 703.089 33.576C701.681 31.784 699.537 30.888 696.657 30.888C693.905 30.888 691.761 31.72 690.225 33.384C688.689 35.048 687.921 37.256 687.921 40.008ZM757.965 75.624L750.189 67.848V41.736C750.189 39.112 749.485 37.096 748.077 35.688C746.669 34.28 744.621 33.576 741.933 33.576C740.781 33.576 739.693 33.704 738.669 33.96C737.645 34.216 736.749 34.568 735.981 35.016V69H720.621V27.624C723.053 25.192 726.349 23.24 730.509 21.768C734.733 20.232 739.309 19.464 744.237 19.464C751.341 19.464 756.653 21.096 760.173 24.36C763.757 27.56 765.549 31.912 765.549 37.416V60.648L769.869 65.544L757.965 75.624ZM795.021 69.672C791.309 69.672 788.013 69.064 785.133 67.848C782.253 66.632 779.981 64.68 778.317 61.992C776.717 59.304 775.917 55.752 775.917 51.336V32.904H767.949V21.48H776.301V7.944H791.661V21.48H804.717V33H791.757V50.856C791.757 53.288 792.333 54.952 793.485 55.848C794.701 56.744 796.141 57.192 797.805 57.192C798.829 57.192 799.949 57.096 801.165 56.904C802.445 56.648 803.437 56.296 804.141 55.848L806.733 67.176C805.133 68.072 803.277 68.712 801.165 69.096C799.117 69.48 797.069 69.672 795.021 69.672ZM846.583 73.416L840.631 65.928C839.159 66.888 837.431 67.656 835.447 68.232C833.463 68.744 831.063 69 828.247 69C821.079 69 815.703 67.24 812.119 63.72C808.535 60.136 806.743 54.984 806.743 48.264V19.848H822.103V47.4C822.103 50.28 822.871 52.488 824.407 54.024C825.943 55.496 827.991 56.232 830.551 56.232C833.175 56.232 835.223 55.496 836.695 54.024C838.167 52.488 838.903 50.28 838.903 47.4V19.848H854.263V57L859.543 63.144L846.583 73.416ZM858.617 69V28.296C860.857 25.736 863.609 23.592 866.873 21.864C870.201 20.136 874.009 19.272 878.297 19.272C883.545 19.272 888.153 20.616 892.121 23.304L888.089 34.344C887.129 33.704 885.977 33.224 884.633 32.904C883.353 32.584 882.169 32.424 881.081 32.424C879.737 32.424 878.489 32.616 877.337 33C876.249 33.32 875.449 33.704 874.937 34.152V69H858.617ZM913.52 69.576C908.4 69.576 903.856 68.552 899.888 66.504C895.984 64.456 892.912 61.48 890.672 57.576C888.432 53.672 887.312 48.968 887.312 43.464C887.312 35.72 889.456 29.768 893.744 25.608C898.096 21.384 903.92 19.272 911.216 19.272C916.336 19.272 920.496 20.264 923.696 22.248C926.96 24.168 929.36 26.76 930.896 30.024C932.432 33.288 933.2 36.904 933.2 40.872C933.2 42.28 933.104 43.752 932.912 45.288C932.784 46.76 932.56 48.232 932.24 49.704H902.384C902.704 52.968 904.048 55.176 906.416 56.328C908.848 57.48 911.632 58.056 914.768 58.056C917.392 58.056 919.792 57.768 921.968 57.192C924.144 56.552 925.904 55.72 927.248 54.696L931.376 64.296C929.776 65.64 927.376 66.856 924.176 67.944C921.04 69.032 917.488 69.576 913.52 69.576ZM902.384 40.008H919.76C919.76 37.448 919.024 35.304 917.552 33.576C916.144 31.784 914 30.888 911.12 30.888C908.368 30.888 906.224 31.72 904.688 33.384C903.152 35.048 902.384 37.256 902.384 40.008ZM955.819 70.92C950.955 70.92 946.475 70.152 942.379 68.616C938.347 67.08 935.275 65.416 933.163 63.624L938.059 53.352C939.659 54.568 941.931 55.72 944.875 56.808C947.819 57.896 950.827 58.44 953.899 58.44C956.203 58.44 957.899 58.088 958.987 57.384C960.075 56.68 960.619 55.72 960.619 54.504C960.619 53.416 960.203 52.616 959.371 52.104C958.539 51.592 957.291 51.208 955.627 50.952L951.019 50.184C945.579 49.288 941.387 47.592 938.443 45.096C935.499 42.536 934.027 39.112 934.027 34.824C934.027 32.072 934.699 29.544 936.043 27.24C937.451 24.936 939.595 23.08 942.475 21.672C945.419 20.264 949.227 19.56 953.899 19.56C958.507 19.56 962.603 20.168 966.187 21.384C969.835 22.536 972.555 23.752 974.347 25.032L970.411 35.304C969.387 34.6 968.011 33.992 966.283 33.48C964.619 32.904 962.827 32.456 960.907 32.136C958.987 31.816 957.163 31.656 955.435 31.656C951.403 31.656 949.387 32.648 949.387 34.632C949.387 35.592 949.771 36.392 950.539 37.032C951.307 37.608 952.171 37.96 953.131 38.088L958.987 39.048C965.451 40.072 969.899 41.832 972.331 44.328C974.763 46.824 975.979 49.992 975.979 53.832C975.979 56.84 975.307 59.656 973.963 62.28C972.619 64.84 970.475 66.92 967.531 68.52C964.587 70.12 960.683 70.92 955.819 70.92ZM67.8619 144.576C59.3499 144.576 52.9819 142.592 48.7579 138.624C44.5339 134.656 42.4219 128.96 42.4219 121.536V82.944H58.7419V121.248C58.7419 124.512 59.5419 126.976 61.1419 128.64C62.8059 130.24 65.1099 131.04 68.0539 131.04C74.0059 131.04 76.9819 127.776 76.9819 121.248V82.944H93.3019V121.536C93.3019 128.96 91.1899 134.656 86.9659 138.624C82.8059 142.592 76.4379 144.576 67.8619 144.576ZM133.515 150.624L125.739 142.848V116.736C125.739 114.112 125.035 112.096 123.627 110.688C122.219 109.28 120.171 108.576 117.483 108.576C116.331 108.576 115.243 108.704 114.219 108.96C113.195 109.216 112.299 109.568 111.531 110.016V144H96.1706V102.624C98.6026 100.192 101.899 98.24 106.059 96.768C110.283 95.232 114.859 94.464 119.787 94.464C126.891 94.464 132.203 96.096 135.723 99.36C139.307 102.56 141.099 106.912 141.099 112.416V135.648L145.419 140.544L133.515 150.624ZM152.427 144V118.464H144.459V106.368H152.427V100.8C152.427 96.384 153.323 92.736 155.115 89.856C156.971 86.976 159.467 84.832 162.603 83.424C165.739 82.016 169.291 81.312 173.259 81.312C175.883 81.312 178.763 81.632 181.899 82.272C185.035 82.848 187.787 83.84 190.155 85.248L186.603 96.48C185.259 95.648 183.691 95.04 181.899 94.656C180.107 94.208 178.347 93.984 176.619 93.984C170.667 93.984 167.691 96.416 167.691 101.28V106.272H183.627V118.464H168.267V144H152.427ZM212.222 144.864C206.91 144.864 202.302 143.808 198.398 141.696C194.558 139.584 191.582 136.576 189.47 132.672C187.358 128.768 186.302 124.16 186.302 118.848C186.302 110.848 188.606 104.704 193.214 100.416C197.886 96.064 204.158 93.888 212.03 93.888C219.902 93.888 226.174 96.064 230.846 100.416C235.518 104.768 237.854 110.976 237.854 119.04C237.854 124.288 236.83 128.864 234.782 132.768C232.734 136.608 229.79 139.584 225.95 141.696C222.11 143.808 217.534 144.864 212.222 144.864ZM212.222 132C215.422 132 217.854 130.816 219.518 128.448C221.246 126.08 222.11 122.944 222.11 119.04C222.11 114.88 221.182 111.776 219.326 109.728C217.534 107.616 215.102 106.56 212.03 106.56C208.958 106.56 206.494 107.616 204.638 109.728C202.846 111.776 201.95 114.848 201.95 118.944C201.95 122.912 202.878 126.08 204.734 128.448C206.59 130.816 209.086 132 212.222 132ZM239.792 144V103.296C242.032 100.736 244.784 98.592 248.048 96.864C251.376 95.136 255.184 94.272 259.472 94.272C264.72 94.272 269.328 95.616 273.296 98.304L269.264 109.344C268.304 108.704 267.152 108.224 265.808 107.904C264.528 107.584 263.344 107.424 262.256 107.424C260.912 107.424 259.664 107.616 258.512 108C257.424 108.32 256.624 108.704 256.112 109.152V144H239.792ZM290.194 162.336C285.138 162.336 280.754 161.568 277.042 160.032C273.33 158.56 270.322 156.864 268.018 154.944L273.01 143.712C275.57 145.504 278.258 146.912 281.074 147.936C283.89 148.96 286.802 149.472 289.81 149.472C293.394 149.472 296.05 148.768 297.778 147.36C299.57 146.016 300.466 144.288 300.466 142.176V138.144C299.186 138.72 297.714 139.168 296.05 139.488C294.45 139.744 292.786 139.872 291.058 139.872C287.218 139.872 283.538 139.104 280.018 137.568C276.498 136.032 273.618 133.6 271.378 130.272C269.138 126.944 268.018 122.56 268.018 117.12C268.018 109.632 270.194 103.968 274.546 100.128C278.962 96.224 284.786 94.272 292.018 94.272C294.834 94.272 297.81 94.56 300.946 95.136C304.146 95.712 307.09 96.544 309.778 97.632C312.466 98.656 314.546 99.904 316.018 101.376V141.984C316.018 146.464 314.834 150.208 312.466 153.216C310.162 156.288 307.058 158.56 303.154 160.032C299.25 161.568 294.93 162.336 290.194 162.336ZM293.458 127.2C295.506 127.2 297.202 126.56 298.546 125.28C299.954 123.936 300.658 121.728 300.658 118.656V108.192C299.89 107.872 298.834 107.584 297.49 107.328C296.146 107.072 294.866 106.944 293.65 106.944C290.578 106.944 288.178 107.84 286.45 109.632C284.786 111.424 283.954 113.888 283.954 117.024C283.954 119.456 284.434 121.44 285.394 122.976C286.354 124.448 287.538 125.536 288.946 126.24C290.418 126.88 291.922 127.2 293.458 127.2ZM344.131 144.576C339.011 144.576 334.467 143.552 330.499 141.504C326.595 139.456 323.523 136.48 321.283 132.576C319.043 128.672 317.923 123.968 317.923 118.464C317.923 110.72 320.067 104.768 324.355 100.608C328.707 96.384 334.531 94.272 341.827 94.272C346.947 94.272 351.107 95.264 354.307 97.248C357.571 99.168 359.971 101.76 361.507 105.024C363.043 108.288 363.811 111.904 363.811 115.872C363.811 117.28 363.715 118.752 363.523 120.288C363.395 121.76 363.171 123.232 362.851 124.704H332.995C333.315 127.968 334.659 130.176 337.027 131.328C339.459 132.48 342.243 133.056 345.379 133.056C348.003 133.056 350.403 132.768 352.579 132.192C354.755 131.552 356.515 130.72 357.859 129.696L361.987 139.296C360.387 140.64 357.987 141.856 354.787 142.944C351.651 144.032 348.099 144.576 344.131 144.576ZM332.995 115.008H350.371C350.371 112.448 349.635 110.304 348.163 108.576C346.755 106.784 344.611 105.888 341.731 105.888C338.979 105.888 336.835 106.72 335.299 108.384C333.763 110.048 332.995 112.256 332.995 115.008ZM390.846 144.672C387.134 144.672 383.838 144.064 380.958 142.848C378.078 141.632 375.806 139.68 374.142 136.992C372.542 134.304 371.742 130.752 371.742 126.336V107.904H363.774V96.48H372.126V82.944H387.486V96.48H400.542V108H387.582V125.856C387.582 128.288 388.158 129.952 389.31 130.848C390.526 131.744 391.966 132.192 393.63 132.192C394.654 132.192 395.774 132.096 396.99 131.904C398.27 131.648 399.262 131.296 399.966 130.848L402.558 142.176C400.958 143.072 399.102 143.712 396.99 144.096C394.942 144.48 392.894 144.672 390.846 144.672ZM427.72 144.672C424.008 144.672 420.712 144.064 417.832 142.848C414.952 141.632 412.68 139.68 411.016 136.992C409.416 134.304 408.616 130.752 408.616 126.336V107.904H400.648V96.48H409V82.944H424.36V96.48H437.416V108H424.456V125.856C424.456 128.288 425.032 129.952 426.184 130.848C427.4 131.744 428.84 132.192 430.504 132.192C431.528 132.192 432.648 132.096 433.864 131.904C435.144 131.648 436.136 131.296 436.84 130.848L439.432 142.176C437.832 143.072 435.976 143.712 433.864 144.096C431.816 144.48 429.768 144.672 427.72 144.672ZM474.674 148.992L468.626 141.696C465.618 143.552 461.874 144.48 457.394 144.48C451.442 144.48 446.802 142.944 443.474 139.872C440.146 136.736 438.482 132.64 438.482 127.584C438.482 122.976 439.89 119.424 442.706 116.928C445.522 114.368 449.618 113.088 454.994 113.088H466.802V111.552C466.802 109.696 465.97 108.32 464.306 107.424C462.642 106.464 460.274 105.984 457.202 105.984C454.834 105.984 452.626 106.272 450.578 106.848C448.594 107.36 446.674 108.16 444.818 109.248L441.074 98.112C443.506 96.768 446.226 95.808 449.234 95.232C452.242 94.592 455.25 94.272 458.258 94.272C465.682 94.272 471.506 95.872 475.73 99.072C479.954 102.208 482.066 106.432 482.066 111.744V133.632L486.578 139.104L474.674 148.992ZM459.794 132.576C462.226 132.576 464.018 131.808 465.17 130.272C466.322 128.672 466.898 127.072 466.898 125.472V122.784H459.794C457.81 122.784 456.306 123.2 455.282 124.032C454.322 124.864 453.842 126.016 453.842 127.488C453.842 129.088 454.386 130.336 455.474 131.232C456.626 132.128 458.066 132.576 459.794 132.576ZM496.518 149.376L483.654 139.68L488.934 132.576V81.6H504.198V98.4C505.286 98.016 506.854 97.664 508.902 97.344C511.014 97.024 513.158 96.864 515.334 96.864C522.438 96.864 527.878 98.912 531.654 103.008C535.494 107.104 537.414 112.832 537.414 120.192C537.414 127.936 535.366 133.952 531.27 138.24C527.174 142.464 521.574 144.576 514.47 144.576C511.782 144.576 509.478 144.288 507.558 143.712C505.638 143.136 503.91 142.336 502.374 141.312L496.518 149.376ZM511.974 131.712C514.534 131.712 516.774 130.784 518.694 128.928C520.678 127.072 521.67 124.16 521.67 120.192C521.67 116.48 520.742 113.792 518.886 112.128C517.094 110.4 514.79 109.536 511.974 109.536C510.758 109.536 509.446 109.664 508.038 109.92C506.63 110.176 505.382 110.56 504.294 111.072V123.072C504.294 126.208 505.03 128.448 506.502 129.792C508.038 131.072 509.862 131.712 511.974 131.712ZM539.346 144V81.6H554.706V144H539.346ZM582.811 144.576C577.691 144.576 573.147 143.552 569.179 141.504C565.275 139.456 562.203 136.48 559.963 132.576C557.723 128.672 556.603 123.968 556.603 118.464C556.603 110.72 558.747 104.768 563.035 100.608C567.387 96.384 573.211 94.272 580.507 94.272C585.627 94.272 589.787 95.264 592.987 97.248C596.251 99.168 598.651 101.76 600.187 105.024C601.723 108.288 602.491 111.904 602.491 115.872C602.491 117.28 602.395 118.752 602.203 120.288C602.075 121.76 601.851 123.232 601.531 124.704H571.675C571.995 127.968 573.339 130.176 575.707 131.328C578.139 132.48 580.923 133.056 584.059 133.056C586.683 133.056 589.083 132.768 591.259 132.192C593.435 131.552 595.195 130.72 596.539 129.696L600.667 139.296C599.067 140.64 596.667 141.856 593.467 142.944C590.331 144.032 586.779 144.576 582.811 144.576ZM571.675 115.008H589.051C589.051 112.448 588.315 110.304 586.843 108.576C585.435 106.784 583.291 105.888 580.411 105.888C577.659 105.888 575.515 106.72 573.979 108.384C572.443 110.048 571.675 112.256 571.675 115.008ZM621.654 144V82.944H637.974V130.56H661.302V144H621.654ZM687.526 144.576C682.406 144.576 677.862 143.552 673.894 141.504C669.99 139.456 666.918 136.48 664.678 132.576C662.438 128.672 661.318 123.968 661.318 118.464C661.318 110.72 663.462 104.768 667.75 100.608C672.102 96.384 677.926 94.272 685.222 94.272C690.342 94.272 694.502 95.264 697.702 97.248C700.966 99.168 703.366 101.76 704.902 105.024C706.438 108.288 707.206 111.904 707.206 115.872C707.206 117.28 707.11 118.752 706.918 120.288C706.79 121.76 706.566 123.232 706.246 124.704H676.39C676.71 127.968 678.054 130.176 680.422 131.328C682.854 132.48 685.638 133.056 688.774 133.056C691.398 133.056 693.798 132.768 695.974 132.192C698.15 131.552 699.91 130.72 701.254 129.696L705.382 139.296C703.782 140.64 701.382 141.856 698.182 142.944C695.046 144.032 691.494 144.576 687.526 144.576ZM676.39 115.008H693.766C693.766 112.448 693.03 110.304 691.558 108.576C690.15 106.784 688.006 105.888 685.126 105.888C682.374 105.888 680.23 106.72 678.694 108.384C677.158 110.048 676.39 112.256 676.39 115.008ZM729.825 145.92C724.961 145.92 720.481 145.152 716.385 143.616C712.353 142.08 709.281 140.416 707.169 138.624L712.065 128.352C713.665 129.568 715.937 130.72 718.881 131.808C721.825 132.896 724.833 133.44 727.905 133.44C730.209 133.44 731.905 133.088 732.993 132.384C734.081 131.68 734.625 130.72 734.625 129.504C734.625 128.416 734.209 127.616 733.377 127.104C732.545 126.592 731.297 126.208 729.633 125.952L725.025 125.184C719.585 124.288 715.393 122.592 712.449 120.096C709.505 117.536 708.033 114.112 708.033 109.824C708.033 107.072 708.705 104.544 710.049 102.24C711.457 99.936 713.601 98.08 716.481 96.672C719.425 95.264 723.233 94.56 727.905 94.56C732.513 94.56 736.609 95.168 740.193 96.384C743.841 97.536 746.561 98.752 748.353 100.032L744.417 110.304C743.393 109.6 742.017 108.992 740.289 108.48C738.625 107.904 736.833 107.456 734.913 107.136C732.993 106.816 731.169 106.656 729.441 106.656C725.409 106.656 723.393 107.648 723.393 109.632C723.393 110.592 723.777 111.392 724.545 112.032C725.313 112.608 726.177 112.96 727.137 113.088L732.993 114.048C739.457 115.072 743.905 116.832 746.337 119.328C748.769 121.824 749.985 124.992 749.985 128.832C749.985 131.84 749.313 134.656 747.969 137.28C746.625 139.84 744.481 141.92 741.537 143.52C738.593 145.12 734.689 145.92 729.825 145.92ZM771.668 145.92C766.804 145.92 762.324 145.152 758.228 143.616C754.196 142.08 751.124 140.416 749.012 138.624L753.908 128.352C755.508 129.568 757.78 130.72 760.724 131.808C763.668 132.896 766.676 133.44 769.748 133.44C772.052 133.44 773.748 133.088 774.836 132.384C775.924 131.68 776.468 130.72 776.468 129.504C776.468 128.416 776.052 127.616 775.22 127.104C774.388 126.592 773.14 126.208 771.476 125.952L766.868 125.184C761.428 124.288 757.236 122.592 754.292 120.096C751.348 117.536 749.876 114.112 749.876 109.824C749.876 107.072 750.548 104.544 751.892 102.24C753.3 99.936 755.444 98.08 758.324 96.672C761.268 95.264 765.076 94.56 769.748 94.56C774.356 94.56 778.452 95.168 782.036 96.384C785.684 97.536 788.404 98.752 790.196 100.032L786.26 110.304C785.236 109.6 783.86 108.992 782.132 108.48C780.468 107.904 778.676 107.456 776.756 107.136C774.836 106.816 773.012 106.656 771.284 106.656C767.252 106.656 765.236 107.648 765.236 109.632C765.236 110.592 765.62 111.392 766.388 112.032C767.156 112.608 768.02 112.96 768.98 113.088L774.836 114.048C781.3 115.072 785.748 116.832 788.18 119.328C790.612 121.824 791.828 124.992 791.828 128.832C791.828 131.84 791.156 134.656 789.812 137.28C788.468 139.84 786.324 141.92 783.38 143.52C780.436 145.12 776.532 145.92 771.668 145.92ZM817.734 144.864C812.422 144.864 807.814 143.808 803.91 141.696C800.07 139.584 797.094 136.576 794.982 132.672C792.87 128.768 791.814 124.16 791.814 118.848C791.814 110.848 794.118 104.704 798.726 100.416C803.398 96.064 809.67 93.888 817.542 93.888C825.414 93.888 831.686 96.064 836.358 100.416C841.03 104.768 843.366 110.976 843.366 119.04C843.366 124.288 842.342 128.864 840.294 132.768C838.246 136.608 835.302 139.584 831.462 141.696C827.622 143.808 823.046 144.864 817.734 144.864ZM817.734 132C820.934 132 823.366 130.816 825.03 128.448C826.758 126.08 827.622 122.944 827.622 119.04C827.622 114.88 826.694 111.776 824.838 109.728C823.046 107.616 820.614 106.56 817.542 106.56C814.47 106.56 812.006 107.616 810.15 109.728C808.358 111.776 807.462 114.848 807.462 118.944C807.462 122.912 808.39 126.08 810.246 128.448C812.102 130.816 814.598 132 817.734 132ZM882.648 150.624L874.872 142.848V116.736C874.872 114.112 874.168 112.096 872.76 110.688C871.352 109.28 869.304 108.576 866.616 108.576C865.464 108.576 864.376 108.704 863.352 108.96C862.328 109.216 861.432 109.568 860.664 110.016V144H845.304V102.624C847.736 100.192 851.032 98.24 855.192 96.768C859.416 95.232 863.992 94.464 868.92 94.464C876.024 94.464 881.336 96.096 884.856 99.36C888.44 102.56 890.232 106.912 890.232 112.416V135.648L894.552 140.544L882.648 150.624ZM914.352 145.92C909.488 145.92 905.008 145.152 900.912 143.616C896.88 142.08 893.808 140.416 891.696 138.624L896.592 128.352C898.192 129.568 900.464 130.72 903.408 131.808C906.352 132.896 909.36 133.44 912.432 133.44C914.736 133.44 916.432 133.088 917.52 132.384C918.608 131.68 919.152 130.72 919.152 129.504C919.152 128.416 918.736 127.616 917.904 127.104C917.072 126.592 915.824 126.208 914.16 125.952L909.552 125.184C904.112 124.288 899.92 122.592 896.976 120.096C894.032 117.536 892.56 114.112 892.56 109.824C892.56 107.072 893.232 104.544 894.576 102.24C895.984 99.936 898.128 98.08 901.008 96.672C903.952 95.264 907.76 94.56 912.432 94.56C917.04 94.56 921.136 95.168 924.72 96.384C928.368 97.536 931.088 98.752 932.88 100.032L928.944 110.304C927.92 109.6 926.544 108.992 924.816 108.48C923.152 107.904 921.36 107.456 919.44 107.136C917.52 106.816 915.696 106.656 913.968 106.656C909.936 106.656 907.92 107.648 907.92 109.632C907.92 110.592 908.304 111.392 909.072 112.032C909.84 112.608 910.704 112.96 911.664 113.088L917.52 114.048C923.984 115.072 928.432 116.832 930.864 119.328C933.296 121.824 934.512 124.992 934.512 128.832C934.512 131.84 933.84 134.656 932.496 137.28C931.152 139.84 929.008 141.92 926.064 143.52C923.12 145.12 919.216 145.92 914.352 145.92Z" fill="#021128" style="fill:#021128;fill:color(display-p3 0.0078 0.0667 0.1569);fill-opacity:1;"/>
</svg>
